<?xml version="1.0" encoding="utf-8"?>
<!-- Generator: Adobe Illustrator 26.5.0, SVG Export Plug-In . SVG Version: 6.00 Build 0)  -->
<svg version="1.1" id="圖層_1" xmlns="http://www.w3.org/2000/svg" xmlns:xlink="http://www.w3.org/1999/xlink" x="0px" y="0px"
	 width="24.8px" height="181.1px" viewBox="0 0 24.8 181.1" style="enable-background:new 0 0 24.8 181.1;" xml:space="preserve">
<style type="text/css">
	.st0{fill:none;stroke:#000000;stroke-miterlimit:10;}
</style>
<g>
	<g>
		<path d="M11.5,0l1.2,1c-1,1-1.7,2.4-1.7,3.9c0,1.8,0.9,2.9,2.3,2.9c1.4,0,1.9-1,2.5-2.3l0.9-2c0.6-1.3,1.5-2.8,3.6-2.8
			c2.1,0,3.7,1.9,3.7,4.4c0,1.7-0.7,3.1-1.7,4.1l-1.1-0.9c0.8-0.9,1.3-1.9,1.3-3.2c0-1.6-0.8-2.6-2.1-2.6c-1.3,0-1.9,1.2-2.3,2.3
			l-0.9,2c-0.7,1.6-1.7,2.9-3.7,2.9c-2.2,0-4-1.8-4-4.7C9.5,2.9,10.3,1.2,11.5,0z"/>
		<path d="M14.9,11.4c3.4,0,5.4,2.3,5.4,5c0,1.3-0.6,2.3-1.2,3l-1.2-0.9c0.6-0.6,0.9-1.2,0.9-2.1c0-1.9-1.6-3.2-4-3.2
			c-2.4,0-4,1.3-4,3.2c0,0.9,0.4,1.8,1,2.4l-1.2,0.7c-0.8-0.9-1.3-2.1-1.3-3.3C9.5,13.5,11.5,11.4,14.9,11.4z"/>
		<path d="M20,21.9v1.4l-1.9,0.2v0.1c1.3,0.7,2.1,1.8,2.1,2.9c0,0.5-0.1,0.8-0.2,1.1l-1.5-0.3c0.1-0.3,0.2-0.6,0.2-1
			c0-0.9-0.6-1.9-2.4-2.6H9.7v-1.7H20z"/>
		<path d="M14.9,28.3c3.4,0,5.4,2.3,5.4,4.8c0,2.5-2,4.8-5.4,4.8c-3.4,0-5.4-2.3-5.4-4.8C9.5,30.5,11.5,28.3,14.9,28.3z M14.9,36
			c2.4,0,4-1.2,4-3c0-1.8-1.6-3-4-3c-2.4,0-4,1.2-4,3C10.9,34.8,12.5,36,14.9,36z"/>
		<path d="M11.8,40.5h13.1v1.7H11.7c-0.5,0-0.7,0.2-0.7,0.5c0,0.1,0,0.2,0,0.4l-1.3,0.2c-0.1-0.2-0.2-0.6-0.2-1
			C9.5,41.1,10.3,40.5,11.8,40.5z"/>
		<path d="M11.8,46h13.1v1.7H11.7c-0.5,0-0.7,0.2-0.7,0.5c0,0.1,0,0.2,0,0.4l-1.3,0.2c-0.1-0.2-0.2-0.6-0.2-1
			C9.5,46.5,10.3,46,11.8,46z"/>
		<path d="M14.9,54.9c3.3,0,5.4,2.1,5.4,4.5c0,1.2-0.5,2-1.2,2.9l1.8-0.1h4v1.7H9.7v-1.4l1.2-0.2v0c-0.8-0.8-1.5-1.9-1.5-3.1
			C9.5,56.6,11.4,54.9,14.9,54.9z M12.3,62.2h5.4c0.8-0.9,1.1-1.7,1.1-2.5c0-1.7-1.6-3-4-3c-2.5,0-4,1-4,2.8
			C10.9,60.5,11.4,61.3,12.3,62.2z"/>
		<path d="M14.9,66.6c3.4,0,5.4,2.3,5.4,4.8c0,2.5-2,4.8-5.4,4.8c-3.4,0-5.4-2.3-5.4-4.8C9.5,68.9,11.5,66.6,14.9,66.6z M14.9,74.4
			c2.4,0,4-1.2,4-3c0-1.8-1.6-3-4-3c-2.4,0-4,1.2-4,3C10.9,73.2,12.5,74.4,14.9,74.4z"/>
		<path d="M20,77.6v1.8l-6,1.5c-1,0.2-1.9,0.4-2.9,0.6v0.1c1,0.2,1.9,0.4,2.9,0.7l6,1.6v1.7l-6,1.6c-1,0.2-1.9,0.5-2.9,0.7V88
			c1,0.2,1.9,0.4,2.9,0.6l6,1.5v1.6L9.7,89V87l5.6-1.5c1-0.3,1.9-0.5,3-0.7v-0.1c-1-0.2-2-0.4-3-0.7l-5.5-1.4v-2L20,77.6z"/>
		<path d="M20,94.1v1.4l-1.5,0.2v0.1c1,1,1.7,2.1,1.7,3.5c0,2.2-1.4,3.2-4,3.2H9.7v-1.7H16c1.9,0,2.8-0.6,2.8-2
			c0-1.1-0.5-1.8-1.6-2.8H9.7v-1.7H20z"/>
	</g>
	<polyline class="st0" points="15.4,112.9 15.4,179.9 0.4,164.9 	"/>
</g>
</svg>
